<svg xmlns="http://www.w3.org/2000/svg" viewBox="0 0 36 36"><defs><clipPath id="clippath1"><path d="M32 5H4C1.791 5 0 6.791 0 9v18c0 2.209 1.791 4 4 4h28c2.209 0 4-1.791 4-4V9c0-2.209-1.791-4-4-4z"/></clipPath></defs><g clip-path="url(#clippath1)"><path fill="#d460a7" d="M32 5H4C1.791 5 0 6.791 0 9v18c0 2.209 1.791 4 4 4h28c2.209 0 4-1.791 4-4V9c0-2.209-1.791-4-4-4z"/><path d="M0 8.71H36V27.285714H0" fill="#e4adcd"/><path d="M0 12.428571H36V23.571429H0" fill="#eee"/><path d="M0 16.142857H36V19.857143H0" fill="#57cef8"/></g></svg>