<svg xmlns="http://www.w3.org/2000/svg" viewBox="0 0 36 36" xml:space="preserve"><defs><clipPath id="clippath1"><path d="M32 5H4C1.791 5 0 6.791 0 9v18c0 2.209 1.791 4 4 4h28c2.209 0 4-1.791 4-4V9c0-2.209-1.791-4-4-4z"/></clipPath></defs><g clip-path="url(#clippath1)"><path fill="#880082" d="M10.75 31H36V26.5H10.75z"/><path fill="#3558a0" d="M10.75 22.07h25.25v4.6H10.75z"/><path fill="#138f3e" d="M10.75 17.83h25.25v4.5H10.75z"/><path fill="#fad220" d="M10.75 13.5h25.25V18H10.75z"/><path fill="#ff7300" d="M10.75 9.17h25.25v4.5H10.75z"/><path fill="#ff000e" d="M36 5H10.75V9.33H36Z"/><g transform="matrix(.034121 0 0 .034121 0 5)"><path d="M315 0H0v762h315l353-381L315 0z" fill="#141414"/><path fill="#945516" d="M241 0H0v762h241l353-381L241 0z"/><path fill="#5bcefa" d="M168 0H0v762h168l353-381L168 0z"/><path fill="#f5a9b8" d="M95 0H0v762h95l353-381L95 0z"/><path fill="#eee" d="M0 0v762h22l352-381L22 0H0z"/><path fill="#fad220" d="m0 706 301-325L0 55v651z"/><circle cx="111" cy="381" r="80" fill="none" stroke="#880082" stroke-width="19"/></g></g></svg>