<svg xmlns="http://www.w3.org/2000/svg" viewBox="0 0 36 36" xml:space="preserve"><defs><clipPath id="clippath1"><path d="M32 5H4C1.791 5 0 6.791 0 9v18c0 2.209 1.791 4 4 4h28c2.209 0 4-1.791 4-4V9c0-2.209-1.791-4-4-4z"/></clipPath></defs><g clip-path="url(#clippath1)"><path fill="#eee" d="M36 9.17H0V31H36z"/><path fill="#141414" d="M0 22.33H36V26.67H0z"/><path fill="#141414" d="M0 13.67H36V18H0z"/><path fill="#141414" d="M36 5H0V9.33H36z"/><g><path d="M0 31 3 26.67 18 18 15 26.67 11.33 32Z" fill="#880082"/><path d="M24.67 32 21 26.67 18 18 33 26.67 36 31Z" fill="#880082"/><path d="M3 26.67 6 22.33 18 18 30 22.33 33 26.67 21 26.67 18 22.33 15 26.67z" fill="#004dff"/><path d="M6 22.33 9 18 18 13.67 27 18 30 22.33z" fill="#138f3e"/><path d="M9 18 12 13.67 18 9.33 24 13.67 27 18z" fill="#fad220"/><path d="M12 13.67 15 9.33 18 7.17 21 9.33 24 13.67z" fill="#ff7300"/><path d="M15 9.33 18 5 21 9.33z" fill="#ff000e"/></g></g></svg>